<svg xmlns="http://www.w3.org/2000/svg" viewBox="0 0 256 256" width="256" height="256">
  <defs>
    <linearGradient id="bg" x1="0" y1="0" x2="1" y2="1">
      <stop offset="0%" stop-color="#e8f4fd"/>
      <stop offset="100%" stop-color="#c5e3f6"/>
    </linearGradient>
    <linearGradient id="wifi" x1="0.5" y1="0" x2="0.5" y2="1">
      <stop offset="0%" stop-color="#0288d1"/>
      <stop offset="100%" stop-color="#01579b"/>
    </linearGradient>
    <linearGradient id="vm" x1="0" y1="0" x2="0" y2="1">
      <stop offset="0%" stop-color="#42a5f5"/>
      <stop offset="100%" stop-color="#1976d2"/>
    </linearGradient>
  </defs>

  <!-- Background rounded square -->
  <rect x="4" y="4" width="248" height="248" rx="40" ry="40" fill="url(#bg)" stroke="#90caf9" stroke-width="3"/>

  <!-- WiFi arcs at top center -->
  <g transform="translate(128, 82)" fill="none" stroke="url(#wifi)" stroke-width="5" stroke-linecap="round">
    <path d="M-48,-28 A 56,56 0 0,1 48,-28" opacity="0.4"/>
    <path d="M-34,-20 A 40,40 0 0,1 34,-20" opacity="0.65"/>
    <path d="M-20,-12 A 24,24 0 0,1 20,-12" opacity="0.9"/>
    <circle cx="0" cy="0" r="5" fill="url(#wifi)" stroke="none"/>
  </g>

  <!-- Network links between VMs -->
  <line x1="68" y1="170" x2="128" y2="130" stroke="#1976d2" stroke-width="2.5" stroke-dasharray="4,3" opacity="0.5"/>
  <line x1="188" y1="170" x2="128" y2="130" stroke="#1976d2" stroke-width="2.5" stroke-dasharray="4,3" opacity="0.5"/>
  <line x1="68" y1="170" x2="188" y2="170" stroke="#1976d2" stroke-width="2.5" stroke-dasharray="4,3" opacity="0.5"/>

  <!-- VM node left -->
  <g transform="translate(68, 170)">
    <rect x="-24" y="-18" width="48" height="36" rx="6" fill="url(#vm)"/>
    <text x="0" y="1" text-anchor="middle" font-family="monospace" font-weight="bold" font-size="11" fill="#fff" dominant-baseline="middle">VM1</text>
  </g>

  <!-- VM node right -->
  <g transform="translate(188, 170)">
    <rect x="-24" y="-18" width="48" height="36" rx="6" fill="url(#vm)"/>
    <text x="0" y="1" text-anchor="middle" font-family="monospace" font-weight="bold" font-size="11" fill="#fff" dominant-baseline="middle">VM2</text>
  </g>

  <!-- Central switch node -->
  <g transform="translate(128, 130)">
    <circle r="16" fill="#fff" stroke="#1976d2" stroke-width="2"/>
    <text x="0" y="1" text-anchor="middle" font-family="monospace" font-weight="bold" font-size="8" fill="#1976d2" dominant-baseline="middle">VDE</text>
  </g>

  <!-- Label QEMU at bottom -->
  <text x="128" y="228" text-anchor="middle" font-family="monospace" font-weight="bold" font-size="22" fill="#1565c0" letter-spacing="4">QEMU</text>
</svg>
