<svg xmlns="http://www.w3.org/2000/svg" viewBox="0 0 256 256" width="256" height="256">
  <defs>
    <linearGradient id="bg" x1="0" y1="0" x2="1" y2="1">
      <stop offset="0%" stop-color="#e3f2fd"/>
      <stop offset="100%" stop-color="#f3e5f5"/>
    </linearGradient>
    <linearGradient id="wifi" x1="0.5" y1="0" x2="0.5" y2="1">
      <stop offset="0%" stop-color="#ff9800"/>
      <stop offset="100%" stop-color="#f44336"/>
    </linearGradient>
    <linearGradient id="vm1" x1="0" y1="0" x2="0" y2="1">
      <stop offset="0%" stop-color="#42a5f5"/>
      <stop offset="100%" stop-color="#1565c0"/>
    </linearGradient>
    <linearGradient id="vm2" x1="0" y1="0" x2="0" y2="1">
      <stop offset="0%" stop-color="#66bb6a"/>
      <stop offset="100%" stop-color="#2e7d32"/>
    </linearGradient>
    <linearGradient id="switch" x1="0" y1="0" x2="0" y2="1">
      <stop offset="0%" stop-color="#ab47bc"/>
      <stop offset="100%" stop-color="#7b1fa2"/>
    </linearGradient>
  </defs>

  <!-- Background rounded square -->
  <rect x="4" y="4" width="248" height="248" rx="40" ry="40" fill="url(#bg)" stroke="#ce93d8" stroke-width="3"/>

  <!-- WiFi arcs at top center (orange-red) -->
  <g transform="translate(128, 82)" fill="none" stroke="url(#wifi)" stroke-width="5" stroke-linecap="round">
    <path d="M-48,-28 A 56,56 0 0,1 48,-28" opacity="0.4"/>
    <path d="M-34,-20 A 40,40 0 0,1 34,-20" opacity="0.65"/>
    <path d="M-20,-12 A 24,24 0 0,1 20,-12" opacity="0.9"/>
    <circle cx="0" cy="0" r="5" fill="#f44336" stroke="none"/>
  </g>

  <!-- Network links between VMs -->
  <line x1="68" y1="170" x2="128" y2="130" stroke="#ab47bc" stroke-width="2.5" stroke-dasharray="4,3" opacity="0.6"/>
  <line x1="188" y1="170" x2="128" y2="130" stroke="#ab47bc" stroke-width="2.5" stroke-dasharray="4,3" opacity="0.6"/>
  <line x1="68" y1="170" x2="188" y2="170" stroke="#ab47bc" stroke-width="2.5" stroke-dasharray="4,3" opacity="0.6"/>

  <!-- VM node left (blue) -->
  <g transform="translate(68, 170)">
    <rect x="-24" y="-18" width="48" height="36" rx="6" fill="url(#vm1)"/>
    <text x="0" y="1" text-anchor="middle" font-family="monospace" font-weight="bold" font-size="11" fill="#fff" dominant-baseline="middle">VM1</text>
  </g>

  <!-- VM node right (green) -->
  <g transform="translate(188, 170)">
    <rect x="-24" y="-18" width="48" height="36" rx="6" fill="url(#vm2)"/>
    <text x="0" y="1" text-anchor="middle" font-family="monospace" font-weight="bold" font-size="11" fill="#fff" dominant-baseline="middle">VM2</text>
  </g>

  <!-- Central switch node (purple) -->
  <g transform="translate(128, 130)">
    <circle r="16" fill="url(#switch)"/>
    <text x="0" y="1" text-anchor="middle" font-family="monospace" font-weight="bold" font-size="8" fill="#fff" dominant-baseline="middle">VDE</text>
  </g>

  <!-- Label QEMU at bottom -->
  <text x="128" y="228" text-anchor="middle" font-family="monospace" font-weight="bold" font-size="22" fill="#e65100" letter-spacing="4">QEMU</text>
</svg>
